<svg xmlns="http://www.w3.org/2000/svg" viewBox="0 0 48 48" fill="none">
  <defs>
    <linearGradient id="bg" x1="6" y1="4" x2="42" y2="44" gradientUnits="userSpaceOnUse">
      <stop stop-color="#78b9a2"/>
      <stop offset="1" stop-color="#3f887b"/>
    </linearGradient>
  </defs>
  <rect x="1.5" y="1.5" width="45" height="45" rx="13" fill="url(#bg)"/>
  <g fill="none" stroke="#fff" stroke-width="4.6" stroke-linecap="round" stroke-linejoin="round">
    <path d="M22.2 20.6C17.3 11.6 8.3 8.7 5.2 14.1c-3.4 6 3.8 10.4 14.9 9.8"/>
    <path d="M27.4 22.2C36.4 17.3 39.3 8.3 33.9 5.2c-6-3.4-10.4 3.8-9.8 14.9"/>
    <path d="M25.8 27.4C30.7 36.4 39.7 39.3 42.8 33.9c3.4-6-3.8-10.4-14.9-9.8"/>
    <path d="M20.6 25.8C11.6 30.7 8.7 39.7 14.1 42.8c6 3.4 10.4-3.8 9.8-14.9"/>
  </g>
  <g fill="#fff">
    <circle cx="24" cy="18.6" r="2.3"/>
    <circle cx="29.4" cy="24" r="2.3"/>
    <circle cx="24" cy="29.4" r="2.3"/>
    <circle cx="18.6" cy="24" r="2.3"/>
    <circle cx="24" cy="24" r="5.1"/>
  </g>
</svg>
